<svg width="43.000000" height="60.000000" viewBox="0 0 43 60" fill="none" xmlns="http://www.w3.org/2000/svg" xmlns:xlink="http://www.w3.org/1999/xlink">
	<desc>
			Created with Pixso.
	</desc>
	<defs/>
	<path id="Vector" d="M30.76 44.83L30.76 54.09L35.19 55.93L35.19 42.4C33.8 43.36 32.31 44.17 30.76 44.83ZM6.8 42.4L6.8 55.84L11.23 53.99L11.23 44.83C9.68 44.17 8.19 43.36 6.8 42.4ZM20.99 46.8C18.9 46.8 16.81 46.54 14.78 46.02L14.78 60L20.99 57.41L27.21 60L27.21 46.02C25.18 46.54 23.09 46.8 20.99 46.8ZM20.99 0C9.07 0 -0.63 9.7 -0.63 21.62C-0.63 33.55 9.07 43.25 20.99 43.25C32.92 43.25 42.62 33.55 42.62 21.62C42.62 9.7 32.92 0 20.99 0ZM20.99 38.68C11.54 38.68 3.85 30.99 3.85 21.53C3.85 12.08 11.54 4.39 20.99 4.39C30.45 4.39 38.14 12.08 38.14 21.53C38.14 30.99 30.45 38.68 20.99 38.68ZM20.99 7.94C13.5 7.94 7.4 14.04 7.4 21.53C7.4 29.03 13.5 35.13 20.99 35.13C28.49 35.13 34.59 29.03 34.59 21.53C34.59 14.04 28.49 7.94 20.99 7.94ZM26.58 29.47L20.99 26.53L15.41 29.47L16.47 23.25L11.95 18.84L18.2 17.93L20.99 12.27L23.79 17.93L30.04 18.84L25.52 23.25L26.58 29.47Z" fill="#FF0000" fill-opacity="1.000000" fill-rule="nonzero"/>
</svg>
