<svg width="53.000000" height="32.000000" viewBox="0 0 53 32" fill="none" xmlns="http://www.w3.org/2000/svg" xmlns:xlink="http://www.w3.org/1999/xlink">
	<desc>
			Created with Pixso.
	</desc>
	<defs/>
	<path id="Vector" d="M51.87 17.62L44.37 8.25C44 7.68 43.43 7.5 42.87 7.5L33.5 7.5L33.5 1.87C33.5 0.75 32.75 0 31.62 0L1.62 0C0.5 0 -0.25 0.75 -0.25 1.87L-0.25 30C-0.25 31.12 0.5 31.87 1.62 31.87L1.81 31.87C1.62 31.31 1.62 30.56 1.62 30C1.62 24.75 5.75 20.62 11 20.62C16.25 20.62 20.37 24.75 20.37 30C20.37 30.56 20.37 31.31 20.18 31.87L31.62 31.87L31.81 31.87C31.62 31.31 31.62 30.56 31.62 30C31.62 24.75 35.75 20.62 41 20.62C46.25 20.62 50.37 24.75 50.37 30C50.37 30.56 50.37 31.31 50.18 31.87L50.37 31.87C51.5 31.87 52.25 31.12 52.25 30L52.25 18.75C52.25 18.37 52.06 18 51.87 17.62Z" fill="#FF0000" fill-opacity="1.000000" fill-rule="nonzero"/>
</svg>
