<svg width="51.000000" height="53.000000" viewBox="0 0 51 53" fill="none" xmlns="http://www.w3.org/2000/svg" xmlns:xlink="http://www.w3.org/1999/xlink">
	<desc>
			Created with Pixso.
	</desc>
	<defs/>
	<path id="Vector" d="M38.87 22.12C37.03 22.16 35.23 21.59 33.75 20.5C33.47 20.31 33.16 20.18 32.83 20.12C32.5 20.06 32.16 20.06 31.84 20.13C31.51 20.2 31.2 20.34 30.93 20.53C30.66 20.72 30.42 20.96 30.25 21.25C30.05 21.48 29.9 21.75 29.81 22.05C29.72 22.34 29.7 22.65 29.73 22.95C29.77 23.26 29.86 23.55 30.02 23.81C30.17 24.08 30.37 24.31 30.62 24.5C32.23 25.62 34.06 26.39 36 26.75L36 29.5C36 30.16 36.26 30.79 36.73 31.26C37.2 31.73 37.83 32 38.5 32C39.16 32 39.79 31.73 40.26 31.26C40.73 30.79 41 30.16 41 29.5L41 26.75C42.37 26.54 43.66 25.98 44.75 25.12C45.53 24.54 46.16 23.79 46.6 22.92C47.03 22.05 47.26 21.09 47.25 20.12C47.25 15.5 43 14 39.37 13.25C35.75 12.5 35 11.62 35 11C35 10.37 35.25 10.25 35.62 9.87C36.31 9.5 37.09 9.33 37.87 9.37C39.32 9.36 40.75 9.75 42 10.5C42.25 10.7 42.54 10.85 42.86 10.93C43.18 11.01 43.51 11.02 43.83 10.96C44.15 10.9 44.45 10.78 44.72 10.59C44.99 10.4 45.21 10.15 45.37 9.87C45.58 9.61 45.74 9.32 45.83 9C45.93 8.67 45.95 8.34 45.9 8.01C45.85 7.68 45.74 7.36 45.56 7.08C45.38 6.8 45.15 6.56 44.87 6.37C43.68 5.64 42.37 5.13 41 4.87L41 2C41 1.33 40.73 0.7 40.26 0.23C39.79 -0.24 39.16 -0.5 38.5 -0.5C37.83 -0.5 37.2 -0.24 36.73 0.23C36.26 0.7 36 1.33 36 2L36 4.75C32.25 5.37 29.75 7.87 29.75 11.25C29.75 14.62 33.87 17.37 37.87 18.12C41.87 18.87 42 19.75 42 20.37C42 21 40.62 22.12 38.87 22.12Z" fill="#FF0000" fill-opacity="1.000000" fill-rule="nonzero"/>
	<path id="Vector" d="M48.75 36.62C48.05 36.06 47.25 35.65 46.39 35.41C45.53 35.18 44.63 35.12 43.75 35.25L31.37 37.5C31.38 36.72 31.22 35.96 30.92 35.25C30.62 34.54 30.18 33.9 29.62 33.37L20.75 24.5L2.25 24.5C1.58 24.5 0.95 24.76 0.48 25.23C0.01 25.7 -0.25 26.33 -0.25 27L-0.25 38.25C-0.25 38.91 0.01 39.54 0.48 40.01C0.95 40.48 1.58 40.75 2.25 40.75L6.37 40.75L20.37 52.12L45.87 47.5C47.02 47.27 48.09 46.73 48.94 45.92C49.8 45.12 50.41 44.09 50.71 42.96C51.01 41.82 50.99 40.63 50.64 39.51C50.29 38.39 49.64 37.38 48.75 36.62ZM45 42.62L21.62 46.87L8.5 36L8.5 29.5L18.75 29.5L26.12 36.87C26.32 37.07 26.43 37.34 26.43 37.62C26.43 37.9 26.32 38.17 26.12 38.37C25.92 38.57 25.65 38.68 25.37 38.68C25.09 38.68 24.82 38.57 24.62 38.37L20.25 34C19.76 33.63 19.17 33.46 18.57 33.5C17.97 33.54 17.4 33.8 16.98 34.23C16.55 34.65 16.29 35.22 16.25 35.82C16.21 36.42 16.38 37.01 16.75 37.5L21.12 41.87C21.67 42.44 22.33 42.9 23.06 43.2C23.79 43.5 24.58 43.64 25.37 43.62C26.14 43.62 26.9 43.49 27.62 43.25L44.62 40.25C44.97 40.2 45.33 40.29 45.62 40.5C45.74 40.6 45.84 40.74 45.9 40.89C45.97 41.04 46 41.21 46 41.37C46 41.66 45.9 41.95 45.72 42.18C45.54 42.4 45.28 42.56 45 42.62Z" fill="#FF0000" fill-opacity="1.000000" fill-rule="nonzero"/>
</svg>
