<svg width="33.000000" height="33.000000" viewBox="0 0 33 33" fill="none" xmlns="http://www.w3.org/2000/svg" xmlns:xlink="http://www.w3.org/1999/xlink">
	<desc>
			Created with Pixso.
	</desc>
	<defs/>
	<path id="Vector" d="M16 -0.25C13.17 -0.25 10.4 0.48 7.95 1.88C5.5 3.28 3.45 5.29 2.01 7.72C0.57 10.15 -0.21 12.91 -0.25 15.73C-0.3 18.55 0.39 21.34 1.75 23.81L0.41 28.49C0.29 28.92 0.28 29.37 0.39 29.8C0.51 30.23 0.73 30.63 1.05 30.94C1.36 31.26 1.76 31.48 2.19 31.6C2.62 31.71 3.07 31.7 3.5 31.58L8.18 30.24C10.35 31.44 12.76 32.11 15.24 32.23C17.71 32.34 20.18 31.89 22.46 30.91C24.73 29.92 26.75 28.43 28.36 26.54C29.96 24.66 31.12 22.43 31.74 20.03C32.35 17.63 32.41 15.12 31.91 12.7C31.4 10.27 30.35 7.99 28.83 6.03C27.31 4.08 25.37 2.49 23.14 1.4C20.92 0.31 18.47 -0.25 16 -0.25ZM19.76 26C19.76 26 19.75 26 19.74 26C17.94 26 16.15 25.64 14.48 24.95C12.81 24.25 11.29 23.24 10.02 21.96C8.74 20.68 7.73 19.16 7.04 17.49C6.35 15.82 5.99 14.03 6 12.23C6 10.74 6.6 9.31 7.65 8.26C8.7 7.21 10.13 6.62 11.62 6.62C12.03 6.62 12.43 6.73 12.79 6.93C13.14 7.14 13.44 7.44 13.64 7.79L15.47 10.99C15.69 11.38 15.8 11.81 15.8 12.26C15.79 12.7 15.67 13.14 15.44 13.52L14.33 15.37C14.88 16.32 15.67 17.11 16.62 17.66L18.47 16.55C18.85 16.32 19.29 16.2 19.73 16.19C20.18 16.19 20.61 16.3 21 16.52L24.2 18.35C24.55 18.55 24.85 18.85 25.05 19.2C25.26 19.56 25.37 19.96 25.37 20.37C25.37 21.86 24.78 23.29 23.73 24.34C22.68 25.39 21.25 25.99 19.76 26Z" fill="#000000" fill-opacity="1.000000" fill-rule="nonzero"/>
</svg>
